HIERARCHY
ROOT root     
{
	OFFSET 0.0000 0.0000 0.0000
	CHANNELS 6 Xposition Yposition Zposition Zrotation Yrotation Xrotation
	JOINT pelvis   
	{
		OFFSET 0.0000 0.0000 0.0000
		CHANNELS 3 Zrotation Yrotation Xrotation
		JOINT thorax   
		{
			OFFSET 0.0000 23.0750 -5.0000
			CHANNELS 3 Zrotation Yrotation Xrotation
			JOINT rclavicle
			{
				OFFSET 0.0000 28.0009 0.0000
				CHANNELS 3 Zrotation Yrotation Xrotation
				JOINT rhumerus 
				{
					OFFSET -18.5725 5.5939 0.0000
					CHANNELS 3 Zrotation Yrotation Xrotation
					JOINT rradius  
					{
						OFFSET -24.8459 0.0000 0.0000
						CHANNELS 3 Zrotation Yrotation Xrotation
						JOINT rhand    
						{
							OFFSET -24.5477 0.0000 0.0000
							CHANNELS 3 Zrotation Yrotation Xrotation
							End Site
							{
								OFFSET -8.1826 0.0000 0.0000
							}
						}
					}
				}
			}
			JOINT lclavicle
			{
				OFFSET 0.0000 28.0009 0.0000
				CHANNELS 3 Zrotation Yrotation Xrotation
				JOINT lhumerus 
				{
					OFFSET 18.5725 5.5939 0.0000
					CHANNELS 3 Zrotation Yrotation Xrotation
					JOINT lradius  
					{
						OFFSET 24.8459 0.0000 0.0000
						CHANNELS 3 Zrotation Yrotation Xrotation
						JOINT lhand    
						{
							OFFSET 24.5477 0.0000 0.0000
							CHANNELS 3 Zrotation Yrotation Xrotation
							End Site
							{
								OFFSET 8.1826 0.0000 0.0000
							}
						}
					}
				}
			}
			JOINT head     
			{
				OFFSET 0.0000 35.2030 0.0000
				CHANNELS 3 Zrotation Yrotation Xrotation
				End Site
				{
					OFFSET 0.0000 11.7343 0.0000
				}
			}
		}
		JOINT rfemur   
		{
			OFFSET -8.2817 0.0000 0.0000
			CHANNELS 3 Zrotation Yrotation Xrotation
			JOINT rtibia   
			{
				OFFSET 0.0000 -43.3627 0.0000
				CHANNELS 3 Zrotation Yrotation Xrotation
				JOINT rfoot    
				{
					OFFSET 0.0000 -38.2947 0.0000
					CHANNELS 3 Zrotation Yrotation Xrotation
					JOINT rtoes    
					{
						OFFSET 0.0000 0.0000 16.6054
						CHANNELS 3 Zrotation Yrotation Xrotation
						End Site
						{
							OFFSET 0.0000 0.0000 5.5351
						}
					}
				}
			}
		}
		JOINT lfemur   
		{
			OFFSET 8.2817 0.0000 0.0000
			CHANNELS 3 Zrotation Yrotation Xrotation
			JOINT ltibia   
			{
				OFFSET 0.0000 -43.3627 0.0000
				CHANNELS 3 Zrotation Yrotation Xrotation
				JOINT lfoot    
				{
					OFFSET 0.0000 -38.2947 0.0000
					CHANNELS 3 Zrotation Yrotation Xrotation
					JOINT ltoes    
					{
						OFFSET 0.0000 0.0000 16.6054
						CHANNELS 3 Zrotation Yrotation Xrotation
						End Site
						{
							OFFSET 0.0000 0.0000 5.5351
						}
					}
				}
			}
		}
	}
}
MOTION
Frames: 17
Frame Time: .0333333
-3.1243 78.165 6.5042 -154.641 66.4513 -139.059 0 -0 0 -7.52421 -6.54018 20.0915 18.9325 -6.77489 -2.00781e-05 60.9255 -9.80881 2.44941 0 42.9064 0 -1.9776 3.56936 -0.0615987 -14.6374 8.8508 3.02695e-05 -51.5949 -11.1167 4.22151 4.12408e-06 -86.7858 -4.36277e-06 2.01489 7.54072 0.132801 -14.8715 14.0023 -3.53708 4.87067 -8.30879 -50.2791 -0 -0 71.2573 -3.30793e-07 -5.48786 0.370095 -0.035601 2.25035e-07 -40.7671 -4.13642 9.15711 -38.0771 -0 -0 57.0735 -0.000143846 18.5322 -27.3044 -8.74174 -7.05196e-08 -0.512504 
-2.5176 78.293 6.3103 -155.28 65.8983 -139.705 0 -0 0 -7.38874 -6.70612 20.0948 18.8649 -7.00548 2.69834e-05 60.7675 -10.2461 2.4891 0 43.4543 0 -1.87817 3.52904 -0.0578984 -14.6399 8.95306 -1.51475e-05 -51.3236 -11.4086 4.484 6.66346e-06 -87.9327 -7.21394e-06 1.76142 7.58078 0.116702 -14.9736 14.1419 -3.54472 5.16465 -7.89426 -50.9187 -0 -0 70.2758 2.62437e-07 -5.41492 0.42579 -0.0403997 -6.09077e-07 -41.0067 -3.85003 8.62496 -37.2995 -0 -0 56.5195 0.00019368 18.5531 -27.3511 -8.7663 9.79368e-07 -0.684991 
-1.9076 78.418 6.1116 -155.876 65.3502 -140.298 0 -0 0 -7.24153 -6.87381 20.0837 18.7917 -7.23316 -6.84977e-07 60.6121 -10.6761 2.5492 0 44.0584 0 -1.80535 3.49698 -0.0551014 -14.6548 9.06601 1.71835e-05 -51.0598 -11.6643 4.72801 0 -89.0945 0 1.50635 7.61742 0.100296 -15.0631 14.29 -3.55335 5.47377 -7.46626 -51.5668 -0 -0 69.2597 -1.5388e-07 -5.36032 0.485296 -0.0455006 6.83539e-07 -41.2996 -3.57415 8.12891 -36.5253 -0 -0 55.95 -8.17286e-05 18.5542 -27.4097 -8.78354 1.44844e-07 -0.794901 
-1.2935 78.539 5.9078 -156.434 64.8084 -140.848 0 -0 0 -7.08307 -7.04742 20.0606 18.7137 -7.45558 5.24756e-05 60.4577 -11.0992 2.6266 0 44.7153 0 -1.76275 3.47419 -0.0535017 -14.6841 9.18914 3.64884e-05 -50.8015 -11.8804 4.95211 180 -89.7703 180 1.25346 7.64995 0.0838037 -15.1425 14.4457 -3.56612 5.79491 -7.03011 -52.2126 -0 -0 68.1997 -4.02635e-07 -5.33579 0.538195 -0.0502993 3.84672e-07 -41.6345 -3.30697 7.66803 -35.7522 -0 -0 55.3668 -0.000130561 18.5319 -27.4792 -8.79244 -8.43486e-07 -0.847604 
-0.6742 78.656 5.698 -156.965 64.263 -141.367 0 -0 0 -6.91511 -7.23094 20.0315 18.6324 -7.67126 -2.87216e-06 60.3036 -11.5145 2.71844 -0 45.4252 -0 -1.75146 3.46022 -0.0528989 -14.7245 9.3212 -8.12862e-07 -50.5541 -12.0538 5.15692 -180 -88.7014 180 1.00499 7.67864 0.0673995 -15.2095 14.6081 -3.58489 6.12441 -6.59302 -52.8467 -0 -0 67.0884 -5.90421e-08 -5.34518 0.577599 -0.0539998 4.72644e-07 -42.0029 -3.04785 7.23861 -34.9803 -0 -0 54.7735 -0.000152978 18.485 -27.5607 -8.79254 -4.64463e-07 -0.857797 
-0.0489 78.769 5.4813 -157.482 63.7145 -141.87 0 -0 0 -6.73988 -7.42675 19.9996 18.5484 -7.87635 6.33289e-05 60.1528 -11.9283 2.8095 -0 46.1892 -0 -1.76167 3.4515 -0.0530989 -14.7748 9.46595 -2.61272e-05 -50.3177 -12.1955 5.34948 180 -87.6705 180 0.762002 7.7039 0.0513001 -15.2629 14.7732 -3.61067 6.45716 -6.16239 -53.4601 -0 -0 65.9177 -5.2136e-07 -5.3851 0.602702 -0.0567987 2.27487e-07 -42.4024 -2.79673 6.83472 -34.2053 -0 -0 54.1682 8.22364e-05 18.4145 -27.6529 -8.78393 -4.7253e-07 -0.845991 
0.5842 78.876 5.2557 -157.991 63.1591 -142.367 0 -0 0 -6.56074 -7.63976 19.9717 18.4644 -8.07653 7.11785e-05 60.0025 -12.3305 2.91572 3.52942e-07 46.9977 8.11759e-07 -1.80209 3.44791 -0.0542002 -14.831 9.60845 8.27962e-05 -50.0939 -12.2828 5.52048 180 -86.6537 -180 0.527289 7.72778 0.0355989 -15.3013 14.9423 -3.6434 6.78912 -5.75111 -54.0382 -0 -0 64.6797 2.39393e-07 -5.43915 0.614595 -0.0584988 -4.23737e-07 -42.8122 -2.5547 6.45149 -33.4189 -0 -0 53.553 0.000129051 18.3229 -27.753 -8.76663 5.05956e-07 -0.838298 
1.226 78.977 5.0197 -158.509 62.5941 -142.878 0 -0 0 -6.38076 -7.87115 19.95 18.3798 -8.2766 -1.17269e-05 59.8521 -12.7161 3.03935 -0 47.8477 -0 -1.86946 3.44834 -0.0563028 -14.8914 9.74242 -7.21318e-06 -49.8843 -12.3114 5.67058 180 -85.6602 180 0.299996 7.75182 0.0202998 -15.3218 15.1122 -3.6816 7.11343 -5.36768 -54.5705 -0 -0 63.3694 -2.89431e-07 -5.48688 0.623796 -0.0598995 5.45456e-07 -43.2275 -2.32388 6.08132 -32.6173 -0 -0 52.9238 5.05457e-05 18.2124 -27.8596 -8.74128 -7.11602e-07 -0.857215 
1.8759 79.071 4.7731 -159.044 62.0144 -143.405 0 -0 0 -6.20249 -8.11961 19.9328 18.3006 -8.46652 -8.36448e-05 59.7066 -13.1073 3.13677 0 48.7542 0 -1.93161 3.44088 -0.0579996 -14.9557 9.88849 -6.50239e-05 -49.691 -12.3189 5.82361 180 -84.7132 -180 0.0772994 7.77701 0.00529994 -15.3218 15.2738 -3.72193 7.42207 -5.01531 -55.0556 -0 -0 61.9773 1.9298e-07 -5.50765 0.6502 -0.0626998 1.21192e-07 -43.6791 -2.10636 5.71584 -31.8031 -0 -0 52.2809 0.000176455 18.0853 -27.9705 -8.7085 -2.66952e-07 -0.917504 
2.535 79.157 4.5138 -159.599 61.4225 -143.958 0 -0 0 -6.02789 -8.38652 19.9224 18.2227 -8.66099 -1.9286e-05 59.5628 -13.4825 3.2428 0 49.6984 0 -2.00459 3.43006 -0.059999 -15.0191 10.0209 9.01325e-05 -49.5136 -12.2691 5.96366 -180 -83.7936 180 -0.141103 7.80524 -0.00960029 -15.2989 15.429 -3.76148 7.70894 -4.702 -55.4869 -0 -0 60.5059 2.53257e-09 -5.47163 0.709197 -0.0678988 3.26586e-08 -44.1484 -1.9045 5.35064 -30.9703 -0 -0 51.6211 1.20631e-05 17.9462 -28.0833 -8.66909 7.99815e-07 -1.03129 
3.2026 79.235 4.2416 -160.18 60.8129 -144.534 0 -0 0 -5.85743 -8.66933 19.9148 18.1495 -8.85981 -4.46268e-05 59.4206 -13.8479 3.34341 0 50.6815 0 -2.07505 3.41087 -0.0618013 -15.0839 10.1462 -2.58802e-05 -49.3529 -12.1761 6.10187 -180 -82.9146 180 -0.357891 7.83716 -0.0244992 -15.2542 15.5734 -3.79728 7.9655 -4.42737 -55.8682 -0 -0 58.9548 5.68823e-07 -5.35694 0.821809 -0.0771001 -3.38217e-07 -44.66 -1.71942 4.98106 -30.1206 -0 -0 50.9454 2.61377e-05 17.7975 -28.1948 -8.62441 -3.56972e-06 -1.19816 
3.8783 79.303 3.956 -160.788 60.1878 -145.136 0 -0 0 -5.69059 -8.96576 19.905 18.0796 -9.06943 -5.71213e-05 59.2796 -14.1965 3.44752 0 51.6965 0 -2.14487 3.38425 -0.0634 -15.1481 10.2541 9.9787e-06 -49.209 -12.0305 6.23634 -180 -82.074 180 -0.574901 7.87351 -0.0395999 -15.1869 15.7038 -3.82608 8.18379 -4.19066 -56.2026 -0 -0 57.3295 -4.18623e-07 -5.14512 1.00191 -0.0901998 1.25535e-07 -45.2179 -1.55238 4.60479 -29.2546 -0 -0 50.2515 6.98113e-05 17.6415 -28.3038 -8.57473 -7.58974e-07 -1.40989 
4.5604 79.361 3.6582 -161.417 59.5503 -145.746 0 -0 0 -5.52396 -9.2711 19.8852 18.0164 -9.2867 -2.94701e-05 59.1423 -14.5394 3.53099 -0 52.7505 -0 -2.19554 3.34387 -0.0641007 -15.2143 10.3625 1.35328e-05 -49.0804 -11.8592 6.38346 -180 -81.2898 180 -0.795802 7.91359 -0.0550003 -15.0975 15.8183 -3.84627 8.35396 -3.98027 -56.5042 -0 -0 55.6344 7.76483e-07 -4.83153 1.26189 -0.106701 -7.97947e-07 -45.8658 -1.40201 4.22044 -28.3839 -0 -0 49.5437 0.000137999 17.4806 -28.4085 -8.52136 1.61872e-06 -1.65166 
5.2482 79.409 3.3486 -162.056 58.8976 -146.353 0 -0 0 -5.3549 -9.58224 19.8496 17.9576 -9.51634 8.20545e-06 59.0066 -14.8685 3.60667 0 53.8338 0 -2.23628 3.29343 -0.0642997 -15.2841 10.4634 1.38903e-06 -48.9704 -11.6533 6.54049 180 -80.5539 -180 -1.0201 7.95701 -0.0710004 -14.9912 15.9165 -3.85842 8.46833 -3.7905 -56.7799 -0 -0 53.8829 1.46579e-06 -4.41524 1.59716 -0.1233 -1.24618e-07 -46.587 -1.26701 3.82987 -27.5121 -0 -0 48.8226 6.61633e-05 17.3159 -28.5084 -8.46378 -7.94028e-06 -1.90553 
5.9407 79.447 3.0284 -162.705 58.2332 -146.953 0 -0 0 -5.17963 -9.89482 19.7923 17.9036 -9.75884 -5.92439e-05 58.8757 -15.183 3.67207 0 54.9408 0 -2.2667 3.23416 -0.0640009 -15.3572 10.5591 2.85992e-05 -48.8766 -11.4149 6.70835 -180 -79.8688 180 -1.24987 8.00312 -0.0874054 -14.8738 15.9994 -3.86437 8.51805 -3.60952 -57.0392 -0 -0 52.085 -4.21262e-07 -3.90824 1.99388 -0.136203 -2.22694e-06 -47.3925 -1.1447 3.43591 -26.6466 -0 -0 48.0938 -4.18934e-05 17.1473 -28.6037 -8.40252 -3.57526e-08 -2.15552 
6.6369 79.473 2.6988 -163.352 57.5589 -147.529 0 -0 0 -4.99402 -10.2038 19.7103 17.8546 -10.0118 1.8191e-05 58.7471 -15.4859 3.71754 -0 56.0724 -0 -2.28325 3.16548 -0.0630984 -15.4378 10.6598 -3.1177e-05 -48.8013 -11.1595 6.89471 180 -79.2431 180 -1.48469 8.05028 -0.104499 -14.7496 16.0662 -3.86788 8.49534 -3.42351 -57.2939 -0 -0 50.2561 -1.30777e-06 -3.33353 2.42873 -0.141397 1.0109e-06 -48.2826 -1.03121 3.04205 -25.7954 -0 -0 47.3612 -2.66608e-05 16.9726 -28.6936 -8.33659 2.63251e-06 -2.39216 
7.3371 79.489 2.3596 -163.992 56.8821 -148.077 0 -0 0 -4.79841 -10.5076 19.605 17.8072 -10.2741 -1.32951e-05 58.6236 -15.7686 3.75915 -0 57.2137 -0 -2.30324 3.09543 -0.0622021 -15.5224 10.7516 -5.6617e-06 -48.7453 -10.8649 7.08657 180 -78.6562 180 -1.72246 8.09804 -0.121905 -14.6249 16.1212 -3.87384 8.39638 -3.22935 -57.5451 -0 -0 48.4104 -2.62615e-07 -2.71292 2.86301 -0.135598 2.21221e-06 -49.198 -0.9247 2.65226 -24.9567 -0 -0 46.6306 -4.52678e-05 16.7905 -28.78 -8.26554 -2.95234e-06 -2.60939 
